<?xml version="1.0" encoding="iso-8859-1"?>
<!-- Generator: Adobe Illustrator 19.0.0, SVG Export Plug-In . SVG Version: 6.00 Build 0)  -->
<svg version="1.1" id="Capa_1" xmlns="http://www.w3.org/2000/svg" xmlns:xlink="http://www.w3.org/1999/xlink" x="0px" y="0px"
	 viewBox="0 0 512 512" style="enable-background:new 0 0 512 512;" xml:space="preserve">
<g>
	<g>
		<path d="M493.488,339.844c-11.936-11.936-27.807-18.51-44.688-18.51c-16.882,0-32.754,6.575-44.69,18.512l-23.476,23.475
			l-23.476-23.475c-11.938-11.938-27.809-18.512-44.69-18.512c-16.88,0-32.751,6.573-44.69,18.511
			c-24.639,24.641-24.639,64.736,0.001,89.378c11.938,11.937,27.809,18.511,44.689,18.511c16.881,0,32.752-6.574,44.687-18.511
			l23.478-23.477l23.476,23.477c11.938,11.937,27.809,18.511,44.689,18.511c16.881,0,32.752-6.574,44.687-18.511
			C505.425,417.286,512,401.415,512,384.534C512,367.652,505.425,351.781,493.488,339.844z M335.943,408.009
			c-6.271,6.27-14.607,9.724-23.474,9.724c-8.868,0-17.205-3.454-23.476-9.724c-12.944-12.945-12.944-34.008-0.001-46.952
			c6.271-6.271,14.609-9.724,23.477-9.724s17.206,3.454,23.478,9.726l23.475,23.474L335.943,408.009z M472.274,408.009
			c-6.271,6.27-14.607,9.724-23.474,9.724c-8.868,0-17.205-3.454-23.477-9.725l-23.475-23.476l23.476-23.475
			c6.27-6.271,14.608-9.725,23.477-9.725c8.868,0,17.204,3.453,23.474,9.724c6.272,6.271,9.726,14.608,9.726,23.477
			C482,393.401,478.546,401.738,472.274,408.009z"/>
	</g>
</g>
<g>
	<g>
		<path d="M437.018,74.98C388.665,26.628,324.378,0,255.999,0S123.333,26.629,74.981,74.98C26.629,123.333,0,187.62,0,256
			s26.629,132.667,74.981,181.02C123.333,485.371,187.62,512,255.999,512c8.284,0,15-6.716,15-15s-6.716-15-15-15
			C131.383,482,30,380.617,30,256S131.383,30,255.999,30c124.617,0,226,101.383,226,226c0,8.284,6.716,15,15,15s15-6.716,15-15
			C511.999,187.62,485.37,123.333,437.018,74.98z"/>
	</g>
</g>
<g>
	<g>
		<path d="M352.398,241h-81.399v-81.4c0-8.285-6.716-15-15-15s-15,6.716-15,15V256c0,8.284,6.716,15,15,15h96.399
			c8.284,0,15-6.716,15-15S360.682,241,352.398,241z"/>
	</g>
</g>
<g>
</g>
<g>
</g>
<g>
</g>
<g>
</g>
<g>
</g>
<g>
</g>
<g>
</g>
<g>
</g>
<g>
</g>
<g>
</g>
<g>
</g>
<g>
</g>
<g>
</g>
<g>
</g>
<g>
</g>
</svg>
